<?xml version="1.0" encoding="UTF-8" standalone="no"?> <svg width="40" height="40" viewBox="0 0 512 512" fill="none" xmlns="http://www.w3.org/2000/svg">
    <path d="M32 128C32 74.9807 74.9807 32 128 32H384C437.019 32 480 74.9807 480 128V384C480 437.019 437.019 480 384 480H128C74.9807 480 32 437.019 32 384V128Z" fill="#597DDC"/>
    <path d="M32 112C32 67.8172 67.8172 32 112 32H368C412.183 32 448 67.8172 448 112V368C448 412.183 412.183 448 368 448H112C67.8172 448 32 412.183 32 368V112Z" fill="#6EBAFF"/>
    <path fill-rule="evenodd" clip-rule="evenodd" d="M24 128C24 70.5624 70.5624 24 128 24H384C441.438 24 488 70.5624 488 128V384C488 441.438 441.438 488 384 488H128C70.5624 488 24 441.438 24 384V128ZM128 40C79.3989 40 40 79.3989 40 128V384C40 432.601 79.3989 472 128 472H384C432.601 472 472 432.601 472 384V128C472 79.3989 432.601 40 384 40H128Z" fill="black"/>
    <path fill-rule="evenodd" clip-rule="evenodd" d="M340 173.852V384C340 395.046 348.954 404 360 404C371.046 404 380 395.046 380 384V136.741C380 109.576 345.206 98.3254 329.301 120.347L256 221.841L182.699 120.347C166.794 98.3255 132 109.576 132 136.741V384C132 395.046 140.954 404 152 404C163.046 404 172 395.046 172 384V173.852L226.816 249.751C241.185 269.647 270.815 269.647 285.184 249.751L340 173.852Z" fill="white"/>
    <path fill-rule="evenodd" clip-rule="evenodd" d="M322.816 115.663C343.264 87.3491 388 101.815 388 136.741V384C388 399.464 375.464 412 360 412C344.536 412 332 399.464 332 384V198.592L291.67 254.434C274.107 278.752 237.893 278.752 220.33 254.434L180 198.592V384C180 399.464 167.464 412 152 412C136.536 412 124 399.464 124 384V136.741C124 101.815 168.736 87.3493 189.184 115.663L256 208.177L322.816 115.663ZM372 136.741C372 117.337 347.147 109.301 335.786 125.031L262.485 226.525C260.981 228.607 258.569 229.841 256 229.841C253.431 229.841 251.019 228.607 249.515 226.525L176.214 125.031C164.853 109.301 140 117.337 140 136.741V384C140 390.628 145.373 396 152 396C158.627 396 164 390.628 164 384V173.852C164 170.382 166.237 167.307 169.539 166.24C172.84 165.172 176.454 166.355 178.485 169.168L233.301 245.066C244.477 260.541 267.523 260.541 278.699 245.066L333.515 169.168C335.546 166.355 339.16 165.172 342.461 166.24C345.763 167.307 348 170.382 348 173.852V384C348 390.628 353.373 396 360 396C366.627 396 372 390.628 372 384V136.741Z" fill="black"/>
</svg>
